<?xml version="1.0" standalone="no"?>
<!DOCTYPE svg PUBLIC "-//W3C//DTD SVG 20010904//EN"
 "http://www.w3.org/TR/2001/REC-SVG-20010904/DTD/svg10.dtd">
<svg version="1.0" xmlns="http://www.w3.org/2000/svg"
 width="512.000000pt" height="512.000000pt" viewBox="0 0 512.000000 512.000000"
 preserveAspectRatio="xMidYMid meet">

<g transform="translate(0.000000,512.000000) scale(0.100000,-0.100000)"
fill="#000000" stroke="none">
<path d="M1025 4626 c-238 -53 -430 -225 -511 -457 l-29 -84 -3 -625 c-4 -679
-2 -699 51 -810 28 -59 97 -132 811 -849 584 -585 792 -788 824 -803 122 -55
251 63 218 199 -5 19 -250 271 -791 813 -672 673 -784 790 -790 820 -3 19 -5
301 -3 625 l3 590 32 66 c39 79 102 140 181 177 l57 27 590 3 c325 2 606 0
625 -3 30 -5 169 -140 998 -968 l962 -962 -824 -825 c-453 -454 -832 -840
-841 -859 -34 -68 2 -169 75 -206 16 -8 51 -15 79 -15 42 0 56 5 98 39 26 21
436 428 910 903 605 605 867 874 878 900 20 49 19 84 -4 133 -22 47 -2027
2053 -2101 2102 -25 17 -72 41 -105 54 l-60 24 -635 2 c-496 1 -648 -1 -695
-11z"/>
<path d="M1481 3984 c-253 -68 -410 -331 -346 -579 67 -256 329 -415 580 -350
256 67 415 329 350 578 -67 259 -333 419 -584 351z m182 -318 c103 -43 128
-177 48 -257 -65 -65 -157 -65 -222 0 -124 123 13 325 174 257z"/>
</g>
</svg>
